<svg xmlns="http://www.w3.org/2000/svg" xmlns:xlink="http://www.w3.org/1999/xlink" width="500" zoomAndPan="magnify" viewBox="0 0 375 206.249992" height="275" preserveAspectRatio="xMidYMid meet" version="1.0"><defs><g/></defs><g fill="#34cea1" fill-opacity="1"><g transform="translate(38.41192, 142.898429)"><g><path d="M 23.5 -31.421875 L 23.5 0 L 6.1875 0 L 6.1875 -80.03125 L 42.296875 -80.03125 L 42.296875 -65.0625 L 23.5 -65.0625 L 23.5 -45.890625 L 41.0625 -45.890625 L 41.0625 -31.421875 Z M 23.5 -31.421875 "/></g></g></g><g fill="#34cea1" fill-opacity="1"><g transform="translate(98.147627, 142.898429)"><g><path d="M 23.5 -14.34375 L 42.671875 -14.34375 L 42.671875 0 L 6.1875 0 L 6.1875 -80.03125 L 42.671875 -80.03125 L 42.671875 -65.921875 L 23.5 -65.921875 L 23.5 -47.125 L 41.4375 -47.125 L 41.4375 -33.515625 L 23.5 -33.515625 Z M 23.5 -14.34375 "/></g></g></g><g fill="#34cea1" fill-opacity="1"><g transform="translate(158.130693, 142.898429)"><g><path d="M 1.609375 -65.3125 L 1.609375 -80.03125 L 44.90625 -80.03125 L 44.90625 -65.3125 L 31.90625 -65.3125 L 31.90625 0 L 14.59375 0 L 14.59375 -65.3125 Z M 1.609375 -65.3125 "/></g></g></g><g fill="#34cea1" fill-opacity="1"><g transform="translate(218.237418, 142.898429)"><g><path d="M 23.5 -14.34375 L 42.671875 -14.34375 L 42.671875 0 L 6.1875 0 L 6.1875 -80.03125 L 42.671875 -80.03125 L 42.671875 -65.921875 L 23.5 -65.921875 L 23.5 -47.125 L 41.4375 -47.125 L 41.4375 -33.515625 L 23.5 -33.515625 Z M 23.5 -14.34375 "/></g></g></g><g fill="#34cea1" fill-opacity="1"><g transform="translate(278.220491, 142.898429)"><g><path d="M 56.03125 -80.03125 L 42.421875 -43.296875 L 58.625 0 L 40.9375 0 L 29.0625 -31.65625 L 23.5 -31.65625 L 23.5 0 L 6.1875 0 L 6.1875 -80.03125 L 23.5 -80.03125 L 23.5 -46.5 L 27.703125 -46.5 L 40.203125 -80.03125 Z M 56.03125 -80.03125 "/></g></g></g></svg>