<svg xmlns="http://www.w3.org/2000/svg" xmlns:xlink="http://www.w3.org/1999/xlink" width="500" zoomAndPan="magnify" viewBox="0 0 375 206.249992" height="275" preserveAspectRatio="xMidYMid meet" version="1.0"><defs><g/><clipPath id="id1"><path d="M 150.539062 5 L 224.519531 5 L 224.519531 133 L 150.539062 133 Z M 150.539062 5 " clip-rule="nonzero"/></clipPath><clipPath id="id2"><path d="M 187.359375 58.566406 L 216.972656 41.574219 L 216.972656 48.644531 C 206.910156 54.460938 196.847656 60.273438 186.785156 66.089844 L 186.785156 59.019531 L 187.242188 58.792969 C 187.242188 58.792969 187.359375 58.679688 187.359375 58.679688 Z M 179.125 115.234375 L 186.785156 110.898438 L 186.785156 74.753906 C 196.390625 69.28125 205.996094 63.695312 215.601562 58.222656 L 224.632812 53.089844 L 224.632812 27.09375 C 224.632812 26.753906 224.40625 26.410156 224.175781 26.296875 L 188.160156 5.546875 C 187.816406 5.316406 187.472656 5.316406 187.242188 5.546875 L 151.226562 26.296875 C 150.882812 26.523438 150.769531 26.753906 150.769531 27.09375 L 150.769531 112.152344 C 150.769531 112.496094 150.996094 112.839844 151.226562 112.953125 C 151.566406 113.179688 151.910156 113.179688 152.140625 112.953125 L 171.691406 101.777344 C 172.035156 101.550781 172.148438 101.320312 172.148438 100.980469 L 172.148438 39.523438 C 172.148438 39.179688 172.378906 38.839844 172.609375 38.726562 L 179.355469 34.847656 L 179.355469 81.597656 L 179.238281 81.597656 L 179.238281 106.910156 L 150.996094 122.757812 L 150.769531 132.105469 L 179.238281 115.574219 Z M 186.785156 30.171875 L 187.128906 29.945312 C 187.472656 29.71875 187.816406 29.71875 188.042969 29.945312 L 203.480469 38.839844 C 203.824219 39.066406 203.9375 39.296875 203.9375 39.636719 C 203.9375 39.980469 203.710938 40.320312 203.480469 40.433594 L 186.671875 50.128906 L 186.671875 30.171875 Z M 212.171875 35.078125 L 188.160156 21.28125 C 187.816406 21.050781 187.472656 21.050781 187.242188 21.28125 L 165.0625 34.050781 C 164.71875 34.277344 164.601562 34.507812 164.601562 34.847656 L 164.601562 96.304688 C 164.601562 96.648438 164.375 96.988281 164.144531 97.101562 L 159.914062 99.613281 C 159.574219 99.839844 159.230469 99.839844 159 99.613281 C 158.65625 99.382812 158.542969 99.15625 158.542969 98.8125 L 158.542969 31.3125 C 158.542969 30.972656 158.773438 30.628906 159 30.515625 L 187.472656 14.097656 C 187.816406 13.867188 188.160156 13.867188 188.386719 14.097656 L 216.859375 30.515625 C 217.203125 30.742188 217.316406 30.972656 217.316406 31.3125 L 217.316406 32.226562 C 217.316406 32.566406 217.085938 32.910156 216.859375 33.023438 L 213.429688 34.960938 C 213.085938 35.191406 212.742188 35.191406 212.515625 34.960938 Z M 212.171875 35.078125 " clip-rule="evenodd"/></clipPath><linearGradient x1="0.748245" gradientTransform="matrix(11.434461, 0, 0, 11.40198, 150.539068, 5.203349)" y1="11.528603" x2="6.918567" gradientUnits="userSpaceOnUse" y2="0.255523" id="id3"><stop stop-opacity="1" stop-color="rgb(20.399475%, 80.799866%, 63.09967%)" offset="0"/><stop stop-opacity="1" stop-color="rgb(20.399475%, 80.799866%, 63.09967%)" offset="0.240977"/><stop stop-opacity="1" stop-color="rgb(20.399475%, 80.799866%, 63.09967%)" offset="0.25"/><stop stop-opacity="1" stop-color="rgb(20.399475%, 80.799866%, 63.09967%)" offset="0.28125"/><stop stop-opacity="1" stop-color="rgb(20.399475%, 80.799866%, 63.09967%)" offset="0.296875"/><stop stop-opacity="1" stop-color="rgb(20.423889%, 80.793762%, 63.241577%)" offset="0.304687"/><stop stop-opacity="1" stop-color="rgb(20.472717%, 80.780029%, 63.53302%)" offset="0.3125"/><stop stop-opacity="1" stop-color="rgb(20.523071%, 80.767822%, 63.829041%)" offset="0.320312"/><stop stop-opacity="1" stop-color="rgb(20.573425%, 80.755615%, 64.125061%)" offset="0.328125"/><stop stop-opacity="1" stop-color="rgb(20.623779%, 80.743408%, 64.421082%)" offset="0.335937"/><stop stop-opacity="1" stop-color="rgb(20.674133%, 80.729675%, 64.717102%)" offset="0.34375"/><stop stop-opacity="1" stop-color="rgb(20.724487%, 80.717468%, 65.013123%)" offset="0.351562"/><stop stop-opacity="1" stop-color="rgb(20.774841%, 80.705261%, 65.309143%)" offset="0.359375"/><stop stop-opacity="1" stop-color="rgb(20.825195%, 80.693054%, 65.605164%)" offset="0.367187"/><stop stop-opacity="1" stop-color="rgb(20.875549%, 80.679321%, 65.901184%)" offset="0.375"/><stop stop-opacity="1" stop-color="rgb(20.925903%, 80.667114%, 66.197205%)" offset="0.382812"/><stop stop-opacity="1" stop-color="rgb(20.976257%, 80.654907%, 66.493225%)" offset="0.390625"/><stop stop-opacity="1" stop-color="rgb(21.026611%, 80.6427%, 66.789246%)" offset="0.398437"/><stop stop-opacity="1" stop-color="rgb(21.076965%, 80.628967%, 67.085266%)" offset="0.40625"/><stop stop-opacity="1" stop-color="rgb(21.127319%, 80.61676%, 67.381287%)" offset="0.414062"/><stop stop-opacity="1" stop-color="rgb(21.177673%, 80.604553%, 67.677307%)" offset="0.421875"/><stop stop-opacity="1" stop-color="rgb(21.228027%, 80.592346%, 67.973328%)" offset="0.429687"/><stop stop-opacity="1" stop-color="rgb(21.278381%, 80.578613%, 68.269348%)" offset="0.4375"/><stop stop-opacity="1" stop-color="rgb(21.328735%, 80.566406%, 68.565369%)" offset="0.445312"/><stop stop-opacity="1" stop-color="rgb(21.379089%, 80.554199%, 68.861389%)" offset="0.453125"/><stop stop-opacity="1" stop-color="rgb(21.429443%, 80.541992%, 69.15741%)" offset="0.460937"/><stop stop-opacity="1" stop-color="rgb(21.479797%, 80.528259%, 69.45343%)" offset="0.46875"/><stop stop-opacity="1" stop-color="rgb(21.530151%, 80.516052%, 69.749451%)" offset="0.476562"/><stop stop-opacity="1" stop-color="rgb(21.580505%, 80.503845%, 70.045471%)" offset="0.484375"/><stop stop-opacity="1" stop-color="rgb(21.630859%, 80.491638%, 70.341492%)" offset="0.492187"/><stop stop-opacity="1" stop-color="rgb(21.681213%, 80.477905%, 70.637512%)" offset="0.5"/><stop stop-opacity="1" stop-color="rgb(21.731567%, 80.465698%, 70.933533%)" offset="0.507812"/><stop stop-opacity="1" stop-color="rgb(21.781921%, 80.453491%, 71.229553%)" offset="0.515625"/><stop stop-opacity="1" stop-color="rgb(21.832275%, 80.439758%, 71.525574%)" offset="0.523438"/><stop stop-opacity="1" stop-color="rgb(21.882629%, 80.427551%, 71.821594%)" offset="0.53125"/><stop stop-opacity="1" stop-color="rgb(21.932983%, 80.415344%, 72.117615%)" offset="0.539062"/><stop stop-opacity="1" stop-color="rgb(21.981812%, 80.403137%, 72.410583%)" offset="0.546875"/><stop stop-opacity="1" stop-color="rgb(22.02301%, 80.39093%, 72.689819%)" offset="0.554688"/><stop stop-opacity="1" stop-color="rgb(22.05658%, 80.378723%, 72.9599%)" offset="0.5625"/><stop stop-opacity="1" stop-color="rgb(22.091675%, 80.36499%, 73.228455%)" offset="0.570312"/><stop stop-opacity="1" stop-color="rgb(22.125244%, 80.352783%, 73.498535%)" offset="0.578125"/><stop stop-opacity="1" stop-color="rgb(22.158813%, 80.340576%, 73.76709%)" offset="0.585938"/><stop stop-opacity="1" stop-color="rgb(22.193909%, 80.328369%, 74.03717%)" offset="0.59375"/><stop stop-opacity="1" stop-color="rgb(22.227478%, 80.316162%, 74.307251%)" offset="0.601562"/><stop stop-opacity="1" stop-color="rgb(22.261047%, 80.303955%, 74.575806%)" offset="0.609375"/><stop stop-opacity="1" stop-color="rgb(22.296143%, 80.291748%, 74.845886%)" offset="0.617188"/><stop stop-opacity="1" stop-color="rgb(22.329712%, 80.279541%, 75.115967%)" offset="0.625"/><stop stop-opacity="1" stop-color="rgb(22.363281%, 80.265808%, 75.384521%)" offset="0.632812"/><stop stop-opacity="1" stop-color="rgb(22.398376%, 80.253601%, 75.654602%)" offset="0.640625"/><stop stop-opacity="1" stop-color="rgb(22.431946%, 80.241394%, 75.923157%)" offset="0.648438"/><stop stop-opacity="1" stop-color="rgb(22.465515%, 80.229187%, 76.193237%)" offset="0.65625"/><stop stop-opacity="1" stop-color="rgb(22.50061%, 80.21698%, 76.463318%)" offset="0.664062"/><stop stop-opacity="1" stop-color="rgb(22.53418%, 80.204773%, 76.731873%)" offset="0.671875"/><stop stop-opacity="1" stop-color="rgb(22.567749%, 80.192566%, 77.001953%)" offset="0.679688"/><stop stop-opacity="1" stop-color="rgb(22.602844%, 80.180359%, 77.272034%)" offset="0.6875"/><stop stop-opacity="1" stop-color="rgb(22.636414%, 80.166626%, 77.540588%)" offset="0.695312"/><stop stop-opacity="1" stop-color="rgb(22.669983%, 80.154419%, 77.810669%)" offset="0.703125"/><stop stop-opacity="1" stop-color="rgb(22.705078%, 80.142212%, 78.079224%)" offset="0.710938"/><stop stop-opacity="1" stop-color="rgb(22.738647%, 80.130005%, 78.349304%)" offset="0.71875"/><stop stop-opacity="1" stop-color="rgb(22.772217%, 80.117798%, 78.619385%)" offset="0.726562"/><stop stop-opacity="1" stop-color="rgb(22.807312%, 80.105591%, 78.887939%)" offset="0.734375"/><stop stop-opacity="1" stop-color="rgb(22.840881%, 80.093384%, 79.15802%)" offset="0.742188"/><stop stop-opacity="1" stop-color="rgb(22.874451%, 80.081177%, 79.428101%)" offset="0.75"/><stop stop-opacity="1" stop-color="rgb(22.909546%, 80.067444%, 79.696655%)" offset="0.757812"/><stop stop-opacity="1" stop-color="rgb(22.943115%, 80.055237%, 79.966736%)" offset="0.759023"/><stop stop-opacity="1" stop-color="rgb(22.9599%, 80.049133%, 80.101013%)" offset="0.765625"/><stop stop-opacity="1" stop-color="rgb(22.976685%, 80.04303%, 80.235291%)" offset="0.773438"/><stop stop-opacity="1" stop-color="rgb(23.01178%, 80.030823%, 80.505371%)" offset="0.78125"/><stop stop-opacity="1" stop-color="rgb(23.045349%, 80.018616%, 80.775452%)" offset="0.789062"/><stop stop-opacity="1" stop-color="rgb(23.078918%, 80.006409%, 81.044006%)" offset="0.796875"/><stop stop-opacity="1" stop-color="rgb(23.11554%, 79.998779%, 81.298828%)" offset="0.804688"/><stop stop-opacity="1" stop-color="rgb(23.152161%, 79.998779%, 81.538391%)" offset="0.8125"/><stop stop-opacity="1" stop-color="rgb(23.188782%, 79.998779%, 81.776428%)" offset="0.820312"/><stop stop-opacity="1" stop-color="rgb(23.223877%, 79.998779%, 82.014465%)" offset="0.828125"/><stop stop-opacity="1" stop-color="rgb(23.260498%, 79.998779%, 82.252502%)" offset="0.835938"/><stop stop-opacity="1" stop-color="rgb(23.297119%, 79.998779%, 82.489014%)" offset="0.84375"/><stop stop-opacity="1" stop-color="rgb(23.33374%, 79.998779%, 82.727051%)" offset="0.851562"/><stop stop-opacity="1" stop-color="rgb(23.370361%, 79.998779%, 82.965088%)" offset="0.859375"/><stop stop-opacity="1" stop-color="rgb(23.406982%, 79.998779%, 83.203125%)" offset="0.867188"/><stop stop-opacity="1" stop-color="rgb(23.443604%, 79.998779%, 83.441162%)" offset="0.875"/><stop stop-opacity="1" stop-color="rgb(23.480225%, 79.998779%, 83.679199%)" offset="0.882812"/><stop stop-opacity="1" stop-color="rgb(23.516846%, 79.998779%, 83.91571%)" offset="0.890625"/><stop stop-opacity="1" stop-color="rgb(23.553467%, 79.998779%, 84.153748%)" offset="0.898438"/><stop stop-opacity="1" stop-color="rgb(23.590088%, 79.998779%, 84.391785%)" offset="0.90625"/><stop stop-opacity="1" stop-color="rgb(23.626709%, 79.998779%, 84.629822%)" offset="0.914062"/><stop stop-opacity="1" stop-color="rgb(23.66333%, 79.998779%, 84.867859%)" offset="0.921875"/><stop stop-opacity="1" stop-color="rgb(23.699951%, 79.998779%, 85.105896%)" offset="0.929688"/><stop stop-opacity="1" stop-color="rgb(23.736572%, 79.998779%, 85.342407%)" offset="0.9375"/><stop stop-opacity="1" stop-color="rgb(23.773193%, 79.998779%, 85.580444%)" offset="0.945312"/><stop stop-opacity="1" stop-color="rgb(23.809814%, 79.998779%, 85.818481%)" offset="0.953125"/><stop stop-opacity="1" stop-color="rgb(23.846436%, 79.998779%, 86.056519%)" offset="0.960938"/><stop stop-opacity="1" stop-color="rgb(23.883057%, 79.998779%, 86.294556%)" offset="0.96875"/><stop stop-opacity="1" stop-color="rgb(23.919678%, 79.998779%, 86.532593%)" offset="0.976562"/><stop stop-opacity="1" stop-color="rgb(23.956299%, 79.998779%, 86.769104%)" offset="0.984375"/><stop stop-opacity="1" stop-color="rgb(23.99292%, 79.998779%, 87.007141%)" offset="0.992188"/><stop stop-opacity="1" stop-color="rgb(24.029541%, 79.998779%, 87.245178%)" offset="1"/></linearGradient></defs><g clip-path="url(#id1)"><g clip-path="url(#id2)"><path fill="url(#id3)" d="M 150.769531 5.316406 L 150.769531 132.105469 L 224.519531 132.105469 L 224.519531 5.316406 Z M 150.769531 5.316406 " fill-rule="nonzero"/></g></g><g fill="#34cea1" fill-opacity="1"><g transform="translate(118.524997, 189.086946)"><g><path d="M 10.875 -14.53125 L 10.875 0 L 2.859375 0 L 2.859375 -37.015625 L 19.5625 -37.015625 L 19.5625 -30.09375 L 10.875 -30.09375 L 10.875 -21.234375 L 19 -21.234375 L 19 -14.53125 Z M 10.875 -14.53125 "/></g></g></g><g fill="#34cea1" fill-opacity="1"><g transform="translate(146.161475, 189.086946)"><g><path d="M 10.875 -6.640625 L 19.734375 -6.640625 L 19.734375 0 L 2.859375 0 L 2.859375 -37.015625 L 19.734375 -37.015625 L 19.734375 -30.5 L 10.875 -30.5 L 10.875 -21.796875 L 19.171875 -21.796875 L 19.171875 -15.5 L 10.875 -15.5 Z M 10.875 -6.640625 "/></g></g></g><g fill="#34cea1" fill-opacity="1"><g transform="translate(173.912393, 189.086946)"><g><path d="M 0.75 -30.21875 L 0.75 -37.015625 L 20.765625 -37.015625 L 20.765625 -30.21875 L 14.765625 -30.21875 L 14.765625 0 L 6.75 0 L 6.75 -30.21875 Z M 0.75 -30.21875 "/></g></g></g><g fill="#34cea1" fill-opacity="1"><g transform="translate(201.720522, 189.086946)"><g><path d="M 10.875 -6.640625 L 19.734375 -6.640625 L 19.734375 0 L 2.859375 0 L 2.859375 -37.015625 L 19.734375 -37.015625 L 19.734375 -30.5 L 10.875 -30.5 L 10.875 -21.796875 L 19.171875 -21.796875 L 19.171875 -15.5 L 10.875 -15.5 Z M 10.875 -6.640625 "/></g></g></g><g fill="#34cea1" fill-opacity="1"><g transform="translate(229.471444, 189.086946)"><g><path d="M 25.921875 -37.015625 L 19.625 -20.03125 L 27.125 0 L 18.9375 0 L 13.453125 -14.640625 L 10.875 -14.640625 L 10.875 0 L 2.859375 0 L 2.859375 -37.015625 L 10.875 -37.015625 L 10.875 -21.515625 L 12.8125 -21.515625 L 18.59375 -37.015625 Z M 25.921875 -37.015625 "/></g></g></g></svg>